<?xml version="1.0" encoding="UTF-8"?>
<svg id="Layer_1" xmlns="http://www.w3.org/2000/svg" version="1.1" viewBox="0 0 220 393">
  <!-- Generator: Adobe Illustrator 29.6.1, SVG Export Plug-In . SVG Version: 2.1.1 Build 9)  -->
  <defs>
    <style>
      .st0 {
        fill: #bdbdbd;
      }
    </style>
  </defs>
  <path class="st0" d="M112,0l.43,67.07c6.88.96,11.85,4.52,17.89,7.11,8.86,3.79,18.29,6.84,26.7,11.3,5.09,9.71,9.61,19.71,14.45,29.55,1.79,3.64,4.56,6.69,6.38,10.62.83,1.79,5.92,14.23,5.99,15.04.18,1.89-2.51,2.86-3.29,4.38-11.81,23.12-20.44,37.15-40.28,54.65-.67.59-1.92-.07-1.28,2.28,3.87,1.28,7.78-1.52,10.72-1.79,1.97-.19,3.76,1,5.73.84,6.79-.52,13.72-1.61,20.52-2.07-1.09-4.38,1.79-5.46,3.22-8.28,3.27-6.44,6.14-14.46,9.61-20.39,3.71-6.36,9.91-10.83,11.53-18.54.51-2.42-6.61-16.22-7.85-20.76-4.17-15.29-3.58-32.67-13.49-46,4.1-.99,6.3,3.26,8.19,6.3,11.63,18.66,16.19,42.73,23.74,63.2,0,2.49-13.75,21.56-16.11,25.82-5.76,10.4-6.6,13.87-14.27,23.73-1.41,1.81-1.97,5.18-3.61,6.39-5.69,4.24-11.89,1.11-17.44,1.51-2.86.21-5.29,1.96-8.05,2.09-2.4.12-5.1-1.23-6.72-.86-1.01.23-1.96,1.83-3.26,1.82s-2.44-1.79-3.01-1.81c-.31-.01-4.25,3.18-4.85,3.71-2.88,2.57,3.01,4.78,4.4,6.55,2.89,3.67,1.63,7.31,8.72,8.36,2.35.35,3.73-1.55,5.84-1.83,2.88-.38,5.78,1.12,8.9,1.08,5.62-.08,12.53-4.42,18.45-.52,1.18.78,2.02,3.22,3.51,4.49,8.94,7.61,9.62,10.11,16.57,18.43,6.27,7.52,13.44,14.26,19.98,21.52v18c-7.87,14.76-13.6,30.71-22.58,44.92-1.64,2.6-10.62,17.22-14.42,14.07,11.22-13.22,13.14-31.25,19.82-46.67,1.6-3.69,9.69-15.53,9.94-16.98.74-4.19-5.13-13.26-8.24-16.36-8.17-8.16-11.99-14.16-19-23-2.3-2.9-5.52-2.83-5.64-7.86-6.76.87-13.58.56-20.37.89-5.7.28-11.83.31-17.51,1-3.23-.95-3.44-6-4.22-6.78-.94-.96-8.11-1.03-9.77-4.21l-1,3.96c5.41,1.27,9.62,4.93,13.99,8.04,18.38,13.1,27.5,26.45,40.98,43.56.72.92,2.57,1.2,2.83,1.63.69,1.15-2.35,18.29-3.1,21.02-1.17,4.27-3.71,8.53-4.97,13.03-2.92,10.38-5.02,21.13-8.86,31.14-8.74,6.35-17.88,12.11-26.79,18.21-2.46,1.68-4.15,4.18-7.15,5.86-1.97,1.1-8.22,4.61-8.45.56,6.89-2,9.03-7.57,13.59-11.42,3.19-2.69,17.16-9.29,18.43-11.53.66-1.15-2.06-8.94-1.32-12.32.82-3.78,4.39-3.85,5.32-5.72.86-1.74.43-4.59,1.17-6.83,2.76-8.44,5.39-16.52,8.01-24.99.7-2.26,3.3-5.49,3.33-6.67.02-.59-3.22-1.19-4.48-2.56-3.07-3.35-6.86-15.67-10.71-21.29-5.95-8.69-21.27-25.02-30.79-29.21-2.43-1.07-4.22-1.93-7.04-1.45-.08,1.52,1.95,1.27,3.04,2.44,2.77,2.98,2.7,8.08-.02,11.07-2.54,2.79-11.79,5.79-12.02-.52,2.56.15,8.15-.97,8.86-3.65,1.77-6.68-8.47-.25-10.37-.25-2.12,0-10.78-5.9-10.37-.76.29,3.65,5.77,4.84,8.88,4.66,1.04,5.51-6.02,3.9-9.55,2.04-6.03-3.19-5.47-8.33-1.45-13.03-3.09-2.61-20.31,13.56-22.97,16.52-7.31,8.07-12.88,16.68-17.51,26.49-2.26,4.8-2.02,11.53-8.51,13l.02,1.45c4.64,3.5,3.8,9.71,5.49,14.51,1.88,5.34,4.88,9.97,6.96,15.04.92,2.25.85,5.42,1.73,7.27,1.22,2.57,3.73,1.55,5.09,3.98,2.63,4.7-.55,9.65,3.49,16.45,3.86,6.49,12.87,10.59,16.22,15.78,1.47,2.27,1.5,4.75,2.97,7.03,1.93,2.98,8.62,4.81,6.01,8.49h-2c-10.38-7.92-17.83-21.66-27.98-29.52-2.82-2.19-7.69-3.47-9.38-5.71-3.36-4.45-8.55-25.12-10.88-32.03-1.38-4.09-4.14-8.12-5.48-12.52-.65-2.12-4.32-16.79-4.28-17.78.08-2.22,2.39-2.12,3.43-3.5.91-1.21,1-3.27,2.12-4.88,13.43-19.34,30.92-39.78,52.4-50.1.57-1.74-1.03-5-2.99-4.52-1.14.28-6.7,1.83-7,2.04-.97.66-1.04,2.91-1.94,4.06-3.07,3.94-6.06,1.38-9.54,1.37-6.3-.02-12.59.4-19.05.13-2.51-.1-10.87-2.19-12.32-.89-.24.22-.39,2.55-1.54,3.93-3.9,4.69-10.27,11.9-14.57,16.44-5.5,5.82-13.39,9.66-16.87,17.15-2.52,5.42,3.79,11.46,5.57,17.1,4.23,13.43,2.36,29.79,12.28,41.21-5.12.87-7.33-4.25-9.52-7.97-8.07-13.69-11.83-29.33-17.48-44.02v-4c1.82-2.47,1.61-5.82,2.8-8.7,2.32-5.62,14.26-14.44,19.22-19.78,3.45-3.71,5.28-7.79,9.45-11.55,1.32-1.19,10.9-9.1,11.57-9.43,6.85-3.31,11.5.28,17.51.48,3.18.11,5.75-1.3,8.82-1,2.02.2,4.18,1.92,5.96,1.72.34-.04,6.23-1.7,6.48-1.92.35-.3.61-3.32,1.68-4.82,1.73-2.42,8.41-4.39,5.27-9.8-1.3-2.23-5.8-2.35-6.8-2.82-1.53-.72-2.75-3.45-4.87-3.91-1.77-.39-3.66,1.4-5.61,1.41s-4.44-1.62-6.99-1.89c-6.11-.66-13.66,2.06-19.07-1.93-1.75-1.3-2.53-5.09-4-7-7.57-9.86-8.51-13.36-14.27-23.73-2.52-4.54-16.22-22.55-15.95-25.66,6.04-15.95,9.7-32.7,16.6-48.34,1.91-4.32,7.99-17.32,11.11-19.89.95-.78,3.17-2.29,4.06-1.43.53.51-5.51,10.88-6.28,13.21-4.2,12.78-4.63,26.86-9.23,39.77-3.46,9.68-8.44,11.53-2.33,22.36,1.99,3.53,5.89,6.54,8.04,9.96,3.65,5.8,6.15,14,9.6,20.4,1.63,3.01,4.49,4.96,4.29,9.21,7.13-.91,13.86,1.22,20.57,1.73,2.97.23,6.7-1.24,10.33.36-14-15.2-26.15-32.25-34.22-51.26-.57-1.35-2.03-2.1-2.65-3.43v-1.55c3.06-5.7,4.23-12.07,7.34-17.77,1.6-2.94,4.11-5.27,5.7-8.3,3.42-6.5,8.73-20.3,12.82-25.18,2.55-3.05,8.01-4.78,11.49-7.51,7.66-6,14.1-14.95,20.88-21.62,1.8-1.77,8.03-4.62,8.49-6.01l.15-53.35h4ZM108,111v-51.5c0-.41,2.57-1.75-.48-1.49-5.2,1.85-5.36,6.51-7.98,10.03-5.43,7.3-16.72,10.32-19.11,20.89-.61,2.71.04,5.79-.95,8.05-1.15,2.63-5.08,2.77-6.55,4.45-.72.82-10.2,16.56-11.33,18.67-2.49,4.65-3.05,12.51-8.61,13.9,8.51,5.7,6.04,17.29,10.99,25.5l8,13.48c-3.84-14.37,2.9-36.28,11.17-48.33,4.36-6.35,17.09-13.61,24.84-13.66ZM112,71v40c20.41,1.32,29.51,16.61,35.27,34.23,3.88,11.87,5.13,20.96-.27,32.76,1.89.41,2.41-.93,3.42-2.07,3.35-3.82,9.42-14.8,11.35-19.65,2.17-5.48,3.3-15.64,6.73-19.32.77-.82,2.51-.61,2.52-1.45.02-1.72-3.17-3.83-4.22-5.78-3.94-7.35-6.93-13.99-11.33-21.66-1.13-1.96-1.5-5.07-2.38-6.38-1.02-1.52-3.61-1.17-5.03-2.21-3.75-2.72-1.57-13.64-2.08-14.37-.78-1.12-18.87-6-21.69-7.76-1.69-1.05-1.7-2.51-2.72-3.33-2.49-2.01-6.34-3.07-9.55-2.99ZM73.02,94c.78.6,6.56-9.35,5.97-10-2.73,1.56-8.22,3.11-8.99,6.51-.09.41,3.6,1.4,3.02,3.49ZM152.98,93.99c1.87-3.32,3.04-7.11-1.98-7.99.71,2.79,1.02,4.39-2,5.49l3.98,2.5ZM53,122.99c2.07.46,2.28-1.06,3.23-2.26,4.95-6.32,9.66-18.87,10.76-26.73-1.55.25-1.88,1.86-2.47,3.02-4.25,8.31-5.77,18.36-11.52,25.97ZM168.99,121c-1.14-6.24-3.87-13.23-6.24-19.24-.86-2.17-1.59-5.63-3.74-6.75-.83,6.09,3.46,10.96,4.81,16.68l5.17,9.31ZM144,145c-.33-.92-.18-2.26-.77-3.68-.69-1.65-8.6-17.77-11.23-15.31,4.87,2.76,1.7,11.38,2.08,11.89.18.24,1.78.38,2.42,1.05,2.32,2.48,2.52,6.74,6.5,7.05.05.71,1.13,1.87.99,3.42-.16,1.73-2.01,3.47-1.54,4.59.64,1.52,2.21,2.48,3.61.52,2.22-3.12-1.03-6.66-2.06-9.53ZM86,131.99l.5-2.99c-6.44,7.88-12.72,20.12-12.57,30.5.03,2.02-.29,4.1,1.57,5.49l2.51-16.99,1.98,4.99c.79-8.04,2.53-15.12,9-20.51l-2.99-.49ZM47.99,133c-1.71-1.37-3.22,3.69-3.53,4.98-.43,1.78-.51,1.79,1.06,3.02l5.48-3.01c.37-1.54-1.38-.64-2.04-1.64s-.82-3.23-.96-3.34ZM177.04,141.98c5.48-.49,1.88-5.65.95-8.97-1.69-.17-1.13,2.26-1.95,3.35-.6.8-3.45.6-2.02,2.62.14.2,3.38.54,3.03,3ZM134.01,147.01c-.85,1.41-1.94,9.03.49,8.97.5-.01,2.52-2.37,2.51-3.46,0-.31-1.93-5.4-2.99-5.51ZM139.01,153c6.63-2.68.31-8.29-2.01-5.99-.82.81,2.75,4.27,2.01,5.99ZM30.99,177c-1.58-8.77-2.63-19.72-12.99-21.99l12.99,21.99ZM140.01,156c-.4,6.33,7.07,5.19,4.52,1.97-.76-.96-3.3-1.22-4.52-1.97ZM72,183l7.99,9c.71-5.16-4.67-7.15-6.99-10-5.63-6.91-10.63-15.9-16.78-22.72-.98-1.09-1.08-2.8-3.22-2.27,4.35,9.95,11.95,17.93,19,25.99ZM148,163c-2.08-.82-4.14,2.16-5.38,1.93-1.79-.34-4.58-7.91-8.62-6.93,3.31,3.64,7.01,18.25,3.54,21.06-.9.73-2.58.62-3.26,1.2-.87.74-1.87,4.49-3.28,5.72l8.51-4.98c1.12,1.05-1.85,6.43,1.48,3.99.94-.69,8.43-19.16,7.01-21.99ZM150,183c-1.79,2.15-6.26,4-5.99,8,2.96-1.65,4.79-4.61,6.99-7,7.08-7.66,15.67-15.95,18.99-26-2.78,1.93-4.93,4.89-6.98,7.51-4.33,5.51-8.36,11.91-13.01,17.49ZM190.98,183.99l12.01-22.99c-10.95,3.26-8.1,14.66-13.98,22.51-.13.85,1.86.58,1.97.48ZM127,191c-.57-4.23,1.15-8.56,3.56-11.94,2.01-2.81,7.05-4.92,4.94-9.06l-4.5,3.99c2.51-3.55,2.17-5.73,1.13-9.67-.45-1.72.73-2.78-2.12-2.32-2.63,3.59,1.82,5.62,1.84,6.49,0,.32-2.87,3.71-3.38,5.5-.34,1.19.37,2.44-.04,3.91-.9,3.27-2.73,5.94-6.45,5.1.59,5.17-.43,5.61,4.01,9-.35,2.08,1.08,3.54-2,2.99l-.5-1.99c-1.18,2.11-2.95,2.18-4.5,3,.58-.81,1.84-2.49.51-2.99-1.83.65-5.19,3.54-6.51,3.99-5.23,1.8-11.68,1.04-17,0,2.29,3.21,2.23,5.35,1,8.99,5.87-2.6,14.9.38,20.29-.98.92-.23,1.16-2.15,2.3-2.88,3.86-2.45,8.83-4.63,12.74-7.3,3.19-2.17,3.08-2.31.16-4.82-.85-.01-3.47,5.85-5.5.98ZM80,204.99c-.61-5.93-7.34-3.53-11.49-4s-10.25-2.02-14.05-2.05c-4.03-.03-4.83,3.36-.95,4.05s9.63-.36,13.99.01,8.09,2.72,12.5,1.99ZM170.94,205.07c-1.7-2.61-6.85.79-8.49.9-1.35.09-2.81-.89-3.95-.78-5.18.49-13.65.29-16.5,4.8,4.11,1.34,8.47-1.46,11.63-1.68,3.94-.28,13.35,2.3,16.78-.22.9-.66.88-2.47.53-3.01ZM98.92,224.9c.49-.65-.18-3.87.1-5.37.31-1.66,1.96-2.85,1.96-3.03.04-2.26-6.43.21-7.99-.5-2.05,3.72,2.98,12.82,5.92,8.91ZM116,227.99c-1.06-1.61-4.61-6-6.33-5.85-2.04.18-10.79,8.6-9.67,9.86,3.46-2.19,5.58-6.74,10.42-6.01,1.86.28,3.28,2.57,5.57,2ZM77,233l-29-.5,2.89,2.97c8.32-1.41,16.74,1.41,24.88-.22l1.24-2.25ZM175,234.01c-5.94-2.29-12.51.66-18.54,1.03-3.83.24-7.65-2.26-11.45.45,3.32,4.14,6.63,1.52,10.48,1.42,4.83-.11,10.35.33,15.02.17,2.07-.07,3.76-1.05,4.49-3.08ZM147,254c-1.01-.82-9.43-8.63-9.99-8,.72,5.39,5.95,6.31,8.99,9,6.67,5.91,12.91,13.56,19.5,19,1.13.93,1.61,2.43,3.5,1.99.79-.77-4.16-6.6-4.97-7.52-4.82-5.47-11.4-9.89-17.03-14.47ZM52.01,281c2.77-1.95,5.15-4.56,7.51-6.98,5.22-5.36,10.59-11.95,15.96-17.04,2.29-2.17,7.36-3.08,7.52-7.97-8.26,7.19-17.9,14.12-25.01,22.48-2.24,2.64-4.99,6.16-5.97,9.52ZM7,268.99l9.98-4.51,7.01-12.48-16.99,16.99ZM215.99,276c.44-1.88-1.05-2.38-1.99-3.5-3.56-4.27-7.76-9.58-11.49-13.51-.83-.88-4.44-5.03-5.51-3.98,3.73,3.88,5.01,10.16,8.47,14.02,3.08,3.43,7.33,3.21,10.52,6.97ZM181.86,292.15c-.09-.12-2.63-1.17-2.75-1.09-.22.15-3.07,4.16-3.08,4.43,0,.48,3.8,3.54,4.47,4.5.87-1.43,2.18-6.81,1.35-7.84ZM43.87,296.14c-4.9-2.87-3.3,5.38-1.86,7.85.36.28,3.74-2.83,3.89-3.64.07-.39-1.82-4.1-2.03-4.22ZM169.99,344l6-33c-1.32-.14-1.76,2.27-2.16,3.32-2.3,6.01-6.16,22.07-5.85,28.17.08,1.63.95,2.82,2.02,1.51ZM48.98,316c-.16-.12-2.11-.35-1.97.48,4.48,8.59,4.57,19.46,7.73,28.32.57,1.6-.54,2.68,2.25,2.19,0-4.24-6.13-29.61-8.01-30.99ZM165.92,348.11c-1.25-1.66-4.91-2.36-5.92.4,2.69.91,2.82,2.78,3.01,5.49,1.45-.04,3.2-5.51,2.91-5.89ZM64.83,352.86c.69-.99-.71-2.75-1.35-2.87-.24-.04-4.33,1.83-4.48,2.03-.21.28,2.58,5.23,3.51,5.97-.47-4.62,1.79-4.37,2.32-5.13Z"/>
</svg>